<?xml version="1.0" encoding="UTF-8" standalone="no"?>
<!DOCTYPE svg PUBLIC "-//W3C//DTD SVG 1.1//EN" "http://www.w3.org/Graphics/SVG/1.1/DTD/svg11.dtd">
<svg width="100%" height="100%" viewBox="0 0 810 247" version="1.1" xmlns="http://www.w3.org/2000/svg" xmlns:xlink="http://www.w3.org/1999/xlink" xml:space="preserve" xmlns:serif="http://www.serif.com/" style="fill-rule:evenodd;clip-rule:evenodd;stroke-linejoin:round;stroke-miterlimit:2;">
    <g transform="matrix(1,0,0,1,-257.859,-384.3)">
        <path d="M373.81,628.89C401.451,610.869 448.074,585.506 497.322,580.755C516.834,578.873 531.395,578.367 542.394,579.052C539.941,581.733 537.398,584.335 534.772,586.852C524.828,586.733 512.021,587.416 495.378,589.154C444.897,594.424 407.747,614.948 382.401,630.818C379.51,630.246 376.645,629.603 373.81,628.89ZM449.88,551.37L422.293,545.643C417.035,544.551 413.653,539.396 414.744,534.139L415.203,531.928C416.294,526.671 421.449,523.288 426.707,524.38L498.612,539.307C501.297,539.865 503.493,541.481 504.853,543.63C504.669,543.633 504.485,543.637 504.3,543.64C527.99,543.161 546.952,547.012 561.991,552.837C560.932,554.596 559.84,556.334 558.716,558.051C540.205,551.794 514.606,548.814 479.397,553.789C452.314,557.617 428.589,564.952 408.238,573.781C377.997,586.901 355.205,603.318 339.905,616.426C337.566,615.272 335.258,614.067 332.989,612.815C351.827,597.294 378.074,578.956 410.242,565.042C409.415,563.227 409.138,561.144 409.574,559.044L410.033,556.833C411.124,551.576 416.279,548.193 421.536,549.285L442.017,553.537C444.61,552.778 447.232,552.055 449.88,551.37ZM803.292,605.2L803.292,487.133L887.992,487.133L887.992,506.383L828.042,506.383L828.042,536.633L881.208,536.633L881.208,555.7L828.042,555.7L828.042,586.133L887.992,586.133L887.992,605.2L803.292,605.2ZM905.225,605.2L905.225,487.133L954.725,487.133C972.447,487.133 985.8,491.686 994.783,500.792C1003.77,509.897 1008.26,525.206 1008.26,546.717C1008.26,567.006 1003.83,581.825 994.967,591.175C986.106,600.525 972.692,605.2 954.725,605.2L905.225,605.2ZM663.408,605.2L663.408,487.133L688.342,487.133L722.992,558.083L757.642,487.133L782.392,487.133L782.392,605.2L757.642,605.2L757.642,528.383L730.142,584.85L715.842,584.85L688.158,528.383L688.158,605.2L663.408,605.2ZM303.396,592.09C329.555,572.296 371.553,543.032 412.503,525.18L410.787,533.443C373.023,550.228 332.228,577.979 307.761,595.775C306.285,594.571 304.831,593.343 303.396,592.09ZM929.975,586.133L951.242,586.133C958.208,586.133 964.075,585.064 968.842,582.925C973.608,580.786 977.183,576.875 979.567,571.192C981.95,565.508 983.142,557.35 983.142,546.717C983.142,536.083 982.042,527.956 979.842,522.333C977.642,516.711 974.219,512.861 969.575,510.783C964.931,508.706 958.819,507.667 951.242,507.667L929.975,507.667L929.975,586.133ZM286.242,574.744C312.308,546.906 359.285,505.989 419.056,493.613L417.6,500.625C356.926,514.066 311.872,555.037 289.932,578.922C288.677,577.549 287.446,576.155 286.242,574.744ZM402.421,482.583C395.023,481.839 387.834,481.645 380.946,482.089C363.743,483.197 337.574,491.933 321.999,499.553C308.553,506.131 276.772,523.79 260.311,533.006C259.453,530.997 258.636,528.969 257.859,526.919C285.358,511.24 348.389,477.232 378.231,476.949C388.531,476.852 399.604,478.051 411.109,480.282L411.522,480.179C415.219,479.256 418.833,478.405 422.376,477.622L421.271,482.943C417.361,483.797 413.388,484.737 409.36,485.764C358.481,498.737 300.334,532.411 274.083,555.247C273.617,555.653 273.156,556.056 272.699,556.458C271.976,555.324 271.266,554.182 270.57,553.029C299.614,529.106 344.999,498.674 402.421,482.583ZM568.45,541.018C555.151,531.012 537.272,523.733 517.325,519.926L518.879,512.443C539.131,516.708 557.48,524.585 571.214,535.121C570.332,537.106 569.412,539.07 568.45,541.018ZM511.331,525.906C512.423,520.648 509.04,515.494 503.783,514.402L431.877,499.475C426.619,498.383 421.465,501.765 420.373,507.023L419.914,509.234C418.823,514.491 422.205,519.646 427.463,520.737L499.369,535.665C504.626,536.757 509.781,533.374 510.872,528.117L511.331,525.906ZM575.093,525.559C561.722,513.816 545.067,503.917 521.768,498.525L523.017,492.508C544.123,498.08 560.686,508.25 576.142,522.625C575.801,523.61 575.45,524.59 575.093,525.559ZM578.404,515.566C565.151,500.282 547.27,488.998 525.084,482.551L525.996,478.158C545.499,484.848 562.038,495.7 578.617,509.262C579.041,509.608 579.457,509.956 579.859,510.301C579.403,512.071 578.917,513.83 578.404,515.566ZM468.759,428.272L467.578,428.026L468.559,423.301L500.453,429.923L499.472,434.648L498.291,434.402L496.8,441.582C513.389,451.428 522.719,471.05 518.581,490.983C518.292,492.376 517.943,493.741 517.537,495.078L517.536,495.078C517.527,495.737 517.456,496.404 517.317,497.073L516.167,502.611C514.996,508.254 509.463,511.885 503.82,510.713L433.312,496.076C427.668,494.904 424.038,489.371 425.209,483.728L426.359,478.19C426.498,477.521 426.698,476.881 426.952,476.273L426.951,476.273C427.111,474.884 427.334,473.493 427.623,472.1C431.761,452.167 448.132,437.88 467.268,435.451L468.759,428.272ZM332.766,402.215C332.766,402.215 345.565,474.38 311.015,476.385C311.015,476.385 332.967,483.084 361.255,476.602C415.829,464.096 357.135,406.919 332.766,402.215ZM707.05,476.8L707.05,407.8L718.75,407.8L719.45,412.2C721.517,410.467 723.783,409.133 726.25,408.2C728.717,407.267 731.617,406.8 734.95,406.8C741.883,406.8 747.233,408.683 751,412.45C754.767,416.217 756.65,422.367 756.65,430.9C756.65,439.433 754.633,445.783 750.6,449.95C746.567,454.117 741.083,456.2 734.15,456.2C728.817,456.2 724.283,455 720.55,452.6L720.55,476.8L707.05,476.8ZM919.45,456.2C913.983,456.2 909.933,454.767 907.3,451.9C904.667,449.033 903.35,445.133 903.35,440.2L903.35,418.2L896.65,418.2L896.65,407.8L903.35,407.8L903.35,397.6L916.85,393.6L916.85,407.8L928.85,407.8L928.05,418.2L916.85,418.2L916.85,439.3C916.85,441.9 917.45,443.683 918.65,444.65C919.85,445.617 921.717,446.1 924.25,446.1C926.117,446.1 928.05,445.767 930.05,445.1L930.05,454.4C928.583,455 926.983,455.45 925.25,455.75C923.517,456.05 921.583,456.2 919.45,456.2ZM836.05,456.2C831.85,456.2 828.1,455.45 824.8,453.95C821.5,452.45 818.917,449.983 817.05,446.55C815.183,443.117 814.25,438.567 814.25,432.9C814.25,427.233 815.283,422.467 817.35,418.6C819.417,414.733 822.183,411.8 825.65,409.8C829.117,407.8 832.917,406.8 837.05,406.8C842.25,406.8 846.683,408 850.35,410.4L850.35,387.8L863.85,387.8L863.85,455.2L852.25,455.2L851.45,450.8C849.383,452.6 847.133,453.95 844.7,454.85C842.267,455.75 839.383,456.2 836.05,456.2ZM788.75,456.2C780.55,456.2 774.05,454.15 769.25,450.05C764.45,445.95 762.05,439.733 762.05,431.4C762.05,423.867 764.067,417.883 768.1,413.45C772.133,409.017 778.15,406.8 786.15,406.8C793.483,406.8 799.1,408.717 803,412.55C806.9,416.383 808.85,421.4 808.85,427.6L808.85,436.2L774.55,436.2C775.283,440 777.033,442.6 779.8,444C782.567,445.4 786.483,446.1 791.55,446.1C794.083,446.1 796.667,445.867 799.3,445.4C801.933,444.933 804.183,444.333 806.05,443.6L806.05,453.2C803.85,454.2 801.283,454.95 798.35,455.45C795.417,455.95 792.217,456.2 788.75,456.2ZM986.05,456.2C977.183,456.2 970.683,454.05 966.55,449.75C962.417,445.45 960.35,439.367 960.35,431.5C960.35,423.633 962.433,417.55 966.6,413.25C970.767,408.95 977.25,406.8 986.05,406.8C994.917,406.8 1001.43,408.95 1005.6,413.25C1009.77,417.55 1011.85,423.633 1011.85,431.5C1011.85,439.367 1009.78,445.45 1005.65,449.75C1001.52,454.05 994.983,456.2 986.05,456.2ZM649.45,455.2L667.65,431.1L650.15,407.8L664.75,407.8L674.95,421.6L685.15,407.8L699.75,407.8L682.35,431.1L700.45,455.2L685.75,455.2L674.95,440.7L664.15,455.2L649.45,455.2ZM601.45,455.2L601.45,390.8L647.65,390.8L647.65,401.3L614.95,401.3L614.95,417.8L643.95,417.8L643.95,428.2L614.95,428.2L614.95,444.8L647.65,444.8L647.65,455.2L601.45,455.2ZM1019.25,455.2L1019.25,407.8L1031.75,407.8L1032.25,412.3C1034.18,410.833 1036.63,409.55 1039.6,408.45C1042.57,407.35 1045.68,406.8 1048.95,406.8C1055.22,406.8 1059.78,408.267 1062.65,411.2C1065.52,414.133 1066.95,418.667 1066.95,424.8L1066.95,455.2L1053.45,455.2L1053.45,425.5C1053.45,422.3 1052.8,420.033 1051.5,418.7C1050.2,417.367 1047.78,416.7 1044.25,416.7C1042.18,416.7 1040.1,417.167 1038,418.1C1035.9,419.033 1034.15,420.2 1032.75,421.6L1032.75,455.2L1019.25,455.2ZM939.35,455.2L939.35,417.8L932.25,417.8L933.45,407.8L952.85,407.8L952.85,455.2L939.35,455.2ZM877.65,455.2L877.65,417.8L870.55,417.8L871.75,407.8L891.15,407.8L891.15,455.2L877.65,455.2ZM839.75,446.3C843.95,446.3 847.483,444.867 850.35,442L850.35,420.4C847.55,417.933 844.283,416.7 840.55,416.7C832.15,416.7 827.95,422.1 827.95,432.9C827.95,437.967 828.983,441.467 831.05,443.4C833.117,445.333 836.017,446.3 839.75,446.3ZM730.75,446.3C734.75,446.3 737.783,445.067 739.85,442.6C741.917,440.133 742.95,436.267 742.95,431C742.95,425.933 742.017,422.283 740.15,420.05C738.283,417.817 735.283,416.7 731.15,416.7C727.017,416.7 723.483,418.133 720.55,421L720.55,442.7C721.95,443.767 723.433,444.633 725,445.3C726.567,445.967 728.483,446.3 730.75,446.3ZM986.05,444.7C990.383,444.7 993.483,443.717 995.35,441.75C997.217,439.783 998.15,436.367 998.15,431.5C998.15,426.633 997.217,423.217 995.35,421.25C993.483,419.283 990.383,418.3 986.05,418.3C981.783,418.3 978.717,419.283 976.85,421.25C974.983,423.217 974.05,426.633 974.05,431.5C974.05,436.367 974.983,439.783 976.85,441.75C978.717,443.717 981.783,444.7 986.05,444.7ZM774.55,427.9L797.05,427.9L797.05,425.3C797.05,422.567 796.25,420.417 794.65,418.85C793.05,417.283 790.35,416.5 786.55,416.5C782.083,416.5 778.967,417.4 777.2,419.2C775.433,421 774.55,423.9 774.55,427.9ZM506.048,408.905L506.294,407.724L472.037,400.612L471.792,401.793L470.61,401.548L466.932,419.267L468.113,419.512L467.868,420.693L502.125,427.805L502.37,426.624L503.551,426.869L507.23,409.15L506.048,408.905ZM780.75,403L788.75,384.3L800.45,384.3L791.65,403L780.75,403ZM938.25,399.1L938.25,388.5L952.95,388.5L952.95,399.1L938.25,399.1ZM876.55,399.1L876.55,388.5L891.25,388.5L891.25,399.1L876.55,399.1Z" style="fill:rgb(27,60,96);"/>
    </g>
</svg>
